PathFileType	4	(X/Y/Z)	E:\3-PhD\Data\MocapData\ElaboratedData\012\pre\dynamicElaborations\RunA1\RunA1.trc
DataRate	CameraRate	NumFrames	NumMarkers	Units	OrigDataRate	DataStartFrame
200	200	5	56	mm	200	473
Frame#	Time	FHD			LBHD			RBHD			C7			T10			CLAV			LSHO			LUUPA			LMUPA			LDUPA			LLEP			LMEP			LRAD			LUL			LRFIN			RSHO			RUPA1			RMUPA			RDUPA			RLEP			RMEP			RRAD			RUL			RUFIN			LASI			RASI			USACR			LSACR			RSACR			LTHI1			LTHI2			LTHI3			LTHI4			LLFC			LTIB1			LTIB2			LTIB3			LTIB4			LHEE			LMT1			LMT5			LMT2			RTHI			RTHI2			RTHI3			RTHI4			RLFC			RTIB1			RTIB2			RTIB3			RTIB4			RLMAL			RHEE			RMT1			RMT2			RMT5		
		X1	Y1	Z1	X2	Y2	Z2	X3	Y3	Z3	X4	Y4	Z4	X5	Y5	Z5	X6	Y6	Z6	X7	Y7	Z7	X8	Y8	Z8	X9	Y9	Z9	X10	Y10	Z10	X11	Y11	Z11	X12	Y12	Z12	X13	Y13	Z13	X14	Y14	Z14	X15	Y15	Z15	X16	Y16	Z16	X17	Y17	Z17	X18	Y18	Z18	X19	Y19	Z19	X20	Y20	Z20	X21	Y21	Z21	X22	Y22	Z22	X23	Y23	Z23	X24	Y24	Z24	X25	Y25	Z25	X26	Y26	Z26	X27	Y27	Z27	X28	Y28	Z28	X29	Y29	Z29	X30	Y30	Z30	X31	Y31	Z31	X32	Y32	Z32	X33	Y33	Z33	X34	Y34	Z34	X35	Y35	Z35	X36	Y36	Z36	X37	Y37	Z37	X38	Y38	Z38	X39	Y39	Z39	X40	Y40	Z40	X41	Y41	Z41	X42	Y42	Z42	X43	Y43	Z43	X44	Y44	Z44	X45	Y45	Z45	X46	Y46	Z46	X47	Y47	Z47	X48	Y48	Z48	X49	Y49	Z49	X50	Y50	Z50	X51	Y51	Z51	X52	Y52	Z52	X53	Y53	Z53	X54	Y54	Z54	X55	Y55	Z55	X56	Y56	Z56	

485	2.420000	-3176.493124	1733.904657	484.873913	-3334.373193	1722.585767	385.807035	-3322.131981	1708.796652	528.373530	-3394.276464	1564.701524	444.938370	-3571.647211	1274.945508	374.959958	-3288.135575	1445.113800	451.564280	-3266.264909	1557.032566	321.968199	-3273.478293	1374.324893	176.758029	-3256.408204	1337.102283	204.943472	-3282.269301	1308.408775	156.540712	-3280.933062	1217.167436	141.567836	-3364.761999	1210.184844	179.150739	-3221.940306	1018.187928	335.215196	-3187.508776	994.142664	269.654918	-3178.535795	949.860170	373.305971	-3335.921670	1481.440455	621.153881	-3528.706283	1330.501607	699.856666	-3508.414839	1284.563155	694.809619	-3563.862708	1266.533560	695.159290	-3600.450440	1205.927666	697.043049	-3607.180294	1192.708259	624.276398	-3428.706187	978.016101	695.020800	-3487.850962	943.575108	733.879011	-3387.832841	901.159926	706.885984	-3485.729799	1014.005963	254.809391	-3504.641425	1018.411002	484.856758	-3639.169815	1146.278951	364.840548	-3657.994890	1117.678242	333.050077	-3660.857435	1119.120640	393.036089	-3637.808308	769.643175	164.464853	-3617.879119	686.691220	170.093688	-3573.832284	678.219993	184.792656	-3656.248030	640.680736	170.860843	-3717.759128	498.862656	184.750824	-3879.016496	407.746259	252.852408	-3927.245181	434.902482	196.261643	-3922.389357	399.709499	226.393143	-4000.768335	389.829816	258.392837	-4173.826786	472.016981	295.466447	-4184.544725	258.872075	320.377746	-4214.370492	284.106590	227.837517	-4188.873004	249.749596	268.413776	-3502.052355	730.033257	520.760708	-3438.610628	703.845142	525.583608	-3406.514259	722.689412	530.339696	-3423.190891	623.686986	497.011291	-3369.948139	524.915369	480.807682	-3330.348700	401.720351	426.836946	-3410.508185	330.123752	445.766461	-3368.565111	322.339695	430.132568	-3360.950200	279.250326	392.376064	-3446.353461	115.348939	349.168987	-3483.169283	81.283426	291.545289	-3260.830732	102.163082	318.399917	-3269.785410	96.224725	358.658454	-3316.593337	57.860474	393.819704	
486	2.425000	-3150.432919	1733.375687	485.138851	-3308.518706	1721.450393	386.618570	-3295.881254	1708.183663	529.084890	-3368.175050	1563.795965	446.533906	-3544.972083	1275.230482	375.208500	-3262.040105	1443.863678	452.169871	-3240.415986	1555.230446	320.954051	-3253.274935	1373.659075	173.866611	-3236.630657	1335.662896	201.589377	-3263.507203	1308.035647	153.108003	-3264.493832	1217.339778	136.091852	-3347.573720	1211.429697	175.438156	-3208.329377	1008.107712	319.855341	-3173.520500	987.523657	252.935217	-3167.647021	936.275763	353.966389	-3309.819577	1478.582599	622.531118	-3497.147286	1318.258001	698.223978	-3474.947618	1273.468551	691.604798	-3528.826773	1253.129825	692.982209	-3563.402401	1190.929736	692.863674	-3571.087224	1179.466354	619.384329	-3382.742665	971.533634	680.844601	-3438.680901	933.360074	720.745410	-3338.703032	896.277937	689.178477	-3456.577735	1014.307445	254.456361	-3478.814907	1018.421746	484.974479	-3612.144883	1144.654474	362.779468	-3630.858163	1116.102412	330.168398	-3634.681314	1117.496551	389.988176	-3601.914786	765.672066	163.060220	-3579.181617	683.466153	169.111602	-3535.142986	676.353497	184.385468	-3616.048513	636.188012	169.552276	-3673.210444	493.300634	183.908771	-3834.374142	407.330028	251.983181	-3883.800535	436.072778	196.564177	-3879.404972	400.709187	227.110734	-3958.469647	393.277476	258.693292	-4129.509454	480.562744	296.920859	-4144.912320	267.359552	319.281367	-4173.075481	294.134241	227.182047	-4148.599566	258.873440	267.714635	-3481.798771	726.040219	518.152503	-3419.201332	698.177947	523.039237	-3386.836040	716.237029	529.025217	-3405.234808	618.058867	494.832841	-3353.556639	518.125562	479.332422	-3316.604182	394.038189	425.393014	-3398.376031	324.358304	443.701413	-3356.715111	315.401355	428.419224	-3349.806723	272.413338	390.734388	-3438.574245	110.783117	346.839747	-3476.162510	77.781207	288.836549	-3253.293008	94.159883	317.082319	-3262.827535	88.976807	357.436332	-3310.831242	53.525650	393.756806	
487	2.430000	-3124.411956	1732.634512	485.356278	-3282.713130	1720.069450	387.381101	-3269.684907	1707.369266	529.739994	-3342.184012	1562.637276	448.222002	-3518.315371	1274.975815	375.524412	-3235.939642	1442.347518	452.702149	-3214.804553	1553.387953	319.916115	-3233.540565	1373.429569	170.691707	-3217.076335	1334.645946	197.709231	-3245.153315	1308.136462	149.331288	-3248.342987	1218.052157	130.287257	-3330.532366	1212.973058	171.493971	-3195.021703	999.515340	303.988581	-3160.019905	982.157929	235.899718	-3157.316078	924.484397	334.087356	-3283.535682	1475.443210	623.876610	-3464.983574	1306.345964	696.108386	-3440.845655	1262.860030	688.226417	-3493.059926	1240.347040	690.604714	-3525.569098	1176.515883	688.415079	-3534.396493	1166.691424	614.220285	-3336.185599	966.606422	666.261124	-3388.449028	924.774320	707.266092	-3288.927889	893.296317	671.133916	-3427.539775	1014.216300	254.262290	-3452.977854	1018.186555	485.204087	-3585.158024	1142.625988	360.751631	-3603.792494	1114.153329	327.292904	-3608.606988	1115.464086	386.868072	-3565.708062	761.659994	161.860265	-3540.028823	680.300275	168.244109	-3496.043509	674.634946	184.180088	-3575.278627	631.778178	168.390626	-3627.825997	487.917824	183.214609	-3788.960739	406.770913	251.261958	-3839.183069	436.896875	196.669392	-3835.233993	401.475051	227.619573	-3914.786558	396.282539	258.724554	-4084.166640	487.996419	298.012695	-4103.637484	274.647951	316.934489	-4129.891351	303.198420	225.349862	-4106.491557	266.953658	265.738545	-3461.943258	721.875000	515.420079	-3400.156449	692.300377	520.414522	-3367.585554	709.410296	527.417701	-3387.862257	612.220774	492.361882	-3337.938795	511.045611	477.530660	-3303.910680	386.238353	423.444098	-3387.381863	318.620943	441.303533	-3346.006103	308.486913	426.295202	-3340.105499	265.658079	388.559373	-3432.638006	106.595256	344.303982	-3471.234481	74.342826	286.221926	-3247.821487	86.923092	315.371958	-3257.829962	82.642094	355.862457	-3306.890645	50.265456	393.512720	
488	2.435000	-3098.424041	1731.714901	485.535373	-3256.963930	1718.494635	388.115901	-3243.520283	1706.371478	530.351972	-3316.296774	1561.247457	449.978739	-3491.669188	1274.151727	375.873437	-3209.816224	1440.604161	453.137410	-3189.448533	1551.568131	318.879321	-3214.250386	1373.718350	167.285612	-3197.738508	1334.137021	193.323844	-3227.195981	1308.815628	145.232332	-3232.444071	1219.388984	124.191928	-3313.606652	1214.890491	167.323217	-3181.891836	992.506716	287.754600	-3146.980517	978.080618	218.633196	-3147.422519	914.569183	313.839747	-3257.043931	1472.086647	625.142986	-3432.281384	1294.902061	693.549819	-3406.165963	1252.876052	684.778754	-3456.714293	1228.298411	687.998500	-3487.028779	1162.838083	683.755117	-3497.157712	1154.558308	608.854911	-3289.173959	963.396678	651.358262	-3337.375136	917.994878	693.390657	-3238.629665	892.426248	652.849944	-3398.619279	1013.691577	254.280376	-3427.253238	1017.649710	485.528010	-3558.241720	1140.285334	358.706574	-3576.711294	1111.905963	324.523340	-3582.582270	1113.139831	383.745110	-3529.191617	757.716112	160.868602	-3500.444848	677.322425	167.497594	-3456.571682	673.185292	184.185149	-3533.952542	627.585096	167.383603	-3581.625866	482.857028	182.682377	-3742.841666	406.141609	250.692092	-3793.423261	437.375250	196.574694	-3789.960106	402.047379	227.920167	-3869.824619	398.847665	258.476440	-4038.024105	494.311707	298.598321	-4060.747317	280.731338	313.487803	-4084.837921	311.140579	222.445882	-4062.549095	273.914462	262.656246	-3442.457882	717.655871	512.652025	-3381.408310	686.352276	517.801411	-3348.706536	702.356234	525.562602	-3371.021339	606.303084	489.663284	-3323.027567	503.821487	475.437630	-3292.150810	378.498535	420.955527	-3377.384936	313.059736	438.520980	-3336.299247	301.780447	423.726508	-3331.673029	259.169374	385.815383	-3428.362778	102.985089	341.535411	-3468.055448	71.071174	283.669202	-3244.137925	80.753858	313.397535	-3254.520376	77.454773	354.041793	-3304.448383	48.117256	393.069237	
489	2.440000	-3072.462383	1730.657675	485.681958	-3231.275095	1716.783724	388.841303	-3217.364176	1705.217292	530.931955	-3290.498484	1559.655983	451.779178	-3465.026303	1272.749740	376.219546	-3183.650453	1438.675875	453.455647	-3164.356870	1549.836693	317.869197	-3195.370960	1374.594024	163.707597	-3178.612253	1334.211918	188.468909	-3209.616743	1310.161113	140.845631	-3216.764665	1221.423284	117.848900	-3296.772314	1217.260713	162.935074	-3168.819176	987.145376	271.294549	-3134.351647	975.324638	201.224225	-3137.842300	906.593044	293.394719	-3230.310484	1468.591767	626.278284	-3399.103058	1284.052078	690.612869	-3370.975500	1243.636089	681.363396	-3419.960821	1217.059730	685.107228	-3447.869411	1150.021782	678.946710	-3459.435190	1143.224309	603.359860	-3241.868381	962.038492	636.239641	-3285.729063	913.160151	679.050804	-3187.968901	893.842220	634.445942	-3369.826504	1012.707330	254.554650	-3401.781737	1016.752927	485.927679	-3531.404136	1137.742678	356.625083	-3549.535528	1109.449963	321.954508	-3556.525563	1110.657142	380.719144	-3492.368426	753.963691	160.087803	-3460.456745	674.679216	166.890827	-3416.771461	672.134433	184.430234	-3492.085944	623.756682	166.544234	-3534.635953	478.273872	182.337314	-3696.057970	405.520268	250.264926	-3746.574804	437.526674	196.290858	-3743.673172	402.468118	228.017940	-3823.716148	400.979902	257.946044	-3991.286834	499.501462	298.556245	-4016.277723	285.608546	309.118943	-4037.979168	317.829085	218.610566	-4016.804581	279.687819	258.665615	-3423.285479	713.530187	509.939293	-3362.881419	680.499431	515.254689	-3330.123750	695.275742	523.510369	-3354.626732	600.469730	486.820870	-3308.733387	496.628579	473.085476	-3281.190234	370.997110	417.969494	-3368.230875	307.850725	435.366501	-3327.449173	295.464006	420.749791	-3324.301308	253.117934	382.568419	-3425.516353	100.124375	338.578120	-3466.245807	68.105683	281.180647	-3241.898828	75.810105	311.322732	-3252.573263	73.492656	352.120831	-3303.171298	46.968842	392.432036	
